# xmcd CD database file
#
# Track frame offsets:
#	150
#	21947
#	40679
#	57927
#	80327
#	100532
#	120739
#	141369
#	156804
#
# Disc length: 2347 seconds
#
# Revision: 1
# Processed by: cddbd v1.4PL0 Copyright (c) Steve Scherf et al.
# Submitted via: CDex 1.50
#
DISCID=6b092909
DTITLE=Sheba Potts Wright - Sheba Potts Wright/Sheba
DYEAR=1900
DGENRE=Blues
TTITLE0=Slow Roll It
TTITLE1=Lover
TTITLE2=I Caught You
TTITLE3=Love Fest
TTITLE4=Don't Give Up On Your Woman
TTITLE5=Do What You Do
TTITLE6=Leave Me Alone
TTITLE7=You Were Wrong
TTITLE8=Lipstick On His Pants
EXTD=
EXTT0=
EXTT1=
EXTT2=
EXTT3=
EXTT4=
EXTT5=
EXTT6=
EXTT7=
EXTT8=
PLAYORDER=
